<?xml version="1.0" encoding="utf-8" standalone="no"?>
<!DOCTYPE svg PUBLIC "-//W3C//DTD SVG 1.1//EN"
  "http://www.w3.org/Graphics/SVG/1.1/DTD/svg11.dtd">
<!-- Created with matplotlib (https://matplotlib.org/) -->
<svg height="893.819375pt" version="1.1" viewBox="0 0 1662.670469 893.819375" width="1662.670469pt" xmlns="http://www.w3.org/2000/svg" xmlns:xlink="http://www.w3.org/1999/xlink">
 <defs>
  <style type="text/css">
*{stroke-linecap:butt;stroke-linejoin:round;}
  </style>
 </defs>
 <g id="figure_1">
  <g id="patch_1">
   <path d="M 0 893.819375 
L 1662.670469 893.819375 
L 1662.670469 0 
L 0 0 
z
" style="fill:#ffffff;"/>
  </g>
  <g id="axes_1">
   <g id="patch_2">
    <path d="M 533.470469 828.6 
L 1649.470469 828.6 
L 1649.470469 13.2 
L 533.470469 13.2 
z
" style="fill:#ffffff;"/>
   </g>
   <g id="matplotlib.axis_1">
    <g id="xtick_1">
     <g id="line2d_1">
      <path clip-path="url(#p53cf9601a3)" d="M 533.470469 828.6 
L 533.470469 13.2 
" style="fill:none;stroke:#cccccc;stroke-linecap:round;"/>
     </g>
     <g id="text_1">
      <!-- 0.00 -->
      <defs>
       <path d="M 31.78125 66.40625 
Q 24.171875 66.40625 20.328125 58.90625 
Q 16.5 51.421875 16.5 36.375 
Q 16.5 21.390625 20.328125 13.890625 
Q 24.171875 6.390625 31.78125 6.390625 
Q 39.453125 6.390625 43.28125 13.890625 
Q 47.125 21.390625 47.125 36.375 
Q 47.125 51.421875 43.28125 58.90625 
Q 39.453125 66.40625 31.78125 66.40625 
z
M 31.78125 74.21875 
Q 44.046875 74.21875 50.515625 64.515625 
Q 56.984375 54.828125 56.984375 36.375 
Q 56.984375 17.96875 50.515625 8.265625 
Q 44.046875 -1.421875 31.78125 -1.421875 
Q 19.53125 -1.421875 13.0625 8.265625 
Q 6.59375 17.96875 6.59375 36.375 
Q 6.59375 54.828125 13.0625 64.515625 
Q 19.53125 74.21875 31.78125 74.21875 
z
" id="DejaVuSans-48"/>
       <path d="M 10.6875 12.40625 
L 21 12.40625 
L 21 0 
L 10.6875 0 
z
" id="DejaVuSans-46"/>
      </defs>
      <g style="fill:#262626;" transform="translate(508.978281 854.816562)scale(0.22 -0.22)">
       <use xlink:href="#DejaVuSans-48"/>
       <use x="63.623047" xlink:href="#DejaVuSans-46"/>
       <use x="95.410156" xlink:href="#DejaVuSans-48"/>
       <use x="159.033203" xlink:href="#DejaVuSans-48"/>
      </g>
     </g>
    </g>
    <g id="xtick_2">
     <g id="line2d_2">
      <path clip-path="url(#p53cf9601a3)" d="M 686.619913 828.6 
L 686.619913 13.2 
" style="fill:none;stroke:#cccccc;stroke-linecap:round;"/>
     </g>
     <g id="text_2">
      <!-- 0.05 -->
      <defs>
       <path d="M 10.796875 72.90625 
L 49.515625 72.90625 
L 49.515625 64.59375 
L 19.828125 64.59375 
L 19.828125 46.734375 
Q 21.96875 47.46875 24.109375 47.828125 
Q 26.265625 48.1875 28.421875 48.1875 
Q 40.625 48.1875 47.75 41.5 
Q 54.890625 34.8125 54.890625 23.390625 
Q 54.890625 11.625 47.5625 5.09375 
Q 40.234375 -1.421875 26.90625 -1.421875 
Q 22.3125 -1.421875 17.546875 -0.640625 
Q 12.796875 0.140625 7.71875 1.703125 
L 7.71875 11.625 
Q 12.109375 9.234375 16.796875 8.0625 
Q 21.484375 6.890625 26.703125 6.890625 
Q 35.15625 6.890625 40.078125 11.328125 
Q 45.015625 15.765625 45.015625 23.390625 
Q 45.015625 31 40.078125 35.4375 
Q 35.15625 39.890625 26.703125 39.890625 
Q 22.75 39.890625 18.8125 39.015625 
Q 14.890625 38.140625 10.796875 36.28125 
z
" id="DejaVuSans-53"/>
      </defs>
      <g style="fill:#262626;" transform="translate(662.127725 854.816562)scale(0.22 -0.22)">
       <use xlink:href="#DejaVuSans-48"/>
       <use x="63.623047" xlink:href="#DejaVuSans-46"/>
       <use x="95.410156" xlink:href="#DejaVuSans-48"/>
       <use x="159.033203" xlink:href="#DejaVuSans-53"/>
      </g>
     </g>
    </g>
    <g id="xtick_3">
     <g id="line2d_3">
      <path clip-path="url(#p53cf9601a3)" d="M 839.769357 828.6 
L 839.769357 13.2 
" style="fill:none;stroke:#cccccc;stroke-linecap:round;"/>
     </g>
     <g id="text_3">
      <!-- 0.10 -->
      <defs>
       <path d="M 12.40625 8.296875 
L 28.515625 8.296875 
L 28.515625 63.921875 
L 10.984375 60.40625 
L 10.984375 69.390625 
L 28.421875 72.90625 
L 38.28125 72.90625 
L 38.28125 8.296875 
L 54.390625 8.296875 
L 54.390625 0 
L 12.40625 0 
z
" id="DejaVuSans-49"/>
      </defs>
      <g style="fill:#262626;" transform="translate(815.27717 854.816562)scale(0.22 -0.22)">
       <use xlink:href="#DejaVuSans-48"/>
       <use x="63.623047" xlink:href="#DejaVuSans-46"/>
       <use x="95.410156" xlink:href="#DejaVuSans-49"/>
       <use x="159.033203" xlink:href="#DejaVuSans-48"/>
      </g>
     </g>
    </g>
    <g id="xtick_4">
     <g id="line2d_4">
      <path clip-path="url(#p53cf9601a3)" d="M 992.918801 828.6 
L 992.918801 13.2 
" style="fill:none;stroke:#cccccc;stroke-linecap:round;"/>
     </g>
     <g id="text_4">
      <!-- 0.15 -->
      <g style="fill:#262626;" transform="translate(968.426614 854.816562)scale(0.22 -0.22)">
       <use xlink:href="#DejaVuSans-48"/>
       <use x="63.623047" xlink:href="#DejaVuSans-46"/>
       <use x="95.410156" xlink:href="#DejaVuSans-49"/>
       <use x="159.033203" xlink:href="#DejaVuSans-53"/>
      </g>
     </g>
    </g>
    <g id="xtick_5">
     <g id="line2d_5">
      <path clip-path="url(#p53cf9601a3)" d="M 1146.068246 828.6 
L 1146.068246 13.2 
" style="fill:none;stroke:#cccccc;stroke-linecap:round;"/>
     </g>
     <g id="text_5">
      <!-- 0.20 -->
      <defs>
       <path d="M 19.1875 8.296875 
L 53.609375 8.296875 
L 53.609375 0 
L 7.328125 0 
L 7.328125 8.296875 
Q 12.9375 14.109375 22.625 23.890625 
Q 32.328125 33.6875 34.8125 36.53125 
Q 39.546875 41.84375 41.421875 45.53125 
Q 43.3125 49.21875 43.3125 52.78125 
Q 43.3125 58.59375 39.234375 62.25 
Q 35.15625 65.921875 28.609375 65.921875 
Q 23.96875 65.921875 18.8125 64.3125 
Q 13.671875 62.703125 7.8125 59.421875 
L 7.8125 69.390625 
Q 13.765625 71.78125 18.9375 73 
Q 24.125 74.21875 28.421875 74.21875 
Q 39.75 74.21875 46.484375 68.546875 
Q 53.21875 62.890625 53.21875 53.421875 
Q 53.21875 48.921875 51.53125 44.890625 
Q 49.859375 40.875 45.40625 35.40625 
Q 44.1875 33.984375 37.640625 27.21875 
Q 31.109375 20.453125 19.1875 8.296875 
z
" id="DejaVuSans-50"/>
      </defs>
      <g style="fill:#262626;" transform="translate(1121.576058 854.816562)scale(0.22 -0.22)">
       <use xlink:href="#DejaVuSans-48"/>
       <use x="63.623047" xlink:href="#DejaVuSans-46"/>
       <use x="95.410156" xlink:href="#DejaVuSans-50"/>
       <use x="159.033203" xlink:href="#DejaVuSans-48"/>
      </g>
     </g>
    </g>
    <g id="xtick_6">
     <g id="line2d_6">
      <path clip-path="url(#p53cf9601a3)" d="M 1299.21769 828.6 
L 1299.21769 13.2 
" style="fill:none;stroke:#cccccc;stroke-linecap:round;"/>
     </g>
     <g id="text_6">
      <!-- 0.25 -->
      <g style="fill:#262626;" transform="translate(1274.725502 854.816562)scale(0.22 -0.22)">
       <use xlink:href="#DejaVuSans-48"/>
       <use x="63.623047" xlink:href="#DejaVuSans-46"/>
       <use x="95.410156" xlink:href="#DejaVuSans-50"/>
       <use x="159.033203" xlink:href="#DejaVuSans-53"/>
      </g>
     </g>
    </g>
    <g id="xtick_7">
     <g id="line2d_7">
      <path clip-path="url(#p53cf9601a3)" d="M 1452.367134 828.6 
L 1452.367134 13.2 
" style="fill:none;stroke:#cccccc;stroke-linecap:round;"/>
     </g>
     <g id="text_7">
      <!-- 0.30 -->
      <defs>
       <path d="M 40.578125 39.3125 
Q 47.65625 37.796875 51.625 33 
Q 55.609375 28.21875 55.609375 21.1875 
Q 55.609375 10.40625 48.1875 4.484375 
Q 40.765625 -1.421875 27.09375 -1.421875 
Q 22.515625 -1.421875 17.65625 -0.515625 
Q 12.796875 0.390625 7.625 2.203125 
L 7.625 11.71875 
Q 11.71875 9.328125 16.59375 8.109375 
Q 21.484375 6.890625 26.8125 6.890625 
Q 36.078125 6.890625 40.9375 10.546875 
Q 45.796875 14.203125 45.796875 21.1875 
Q 45.796875 27.640625 41.28125 31.265625 
Q 36.765625 34.90625 28.71875 34.90625 
L 20.21875 34.90625 
L 20.21875 43.015625 
L 29.109375 43.015625 
Q 36.375 43.015625 40.234375 45.921875 
Q 44.09375 48.828125 44.09375 54.296875 
Q 44.09375 59.90625 40.109375 62.90625 
Q 36.140625 65.921875 28.71875 65.921875 
Q 24.65625 65.921875 20.015625 65.03125 
Q 15.375 64.15625 9.8125 62.3125 
L 9.8125 71.09375 
Q 15.4375 72.65625 20.34375 73.4375 
Q 25.25 74.21875 29.59375 74.21875 
Q 40.828125 74.21875 47.359375 69.109375 
Q 53.90625 64.015625 53.90625 55.328125 
Q 53.90625 49.265625 50.4375 45.09375 
Q 46.96875 40.921875 40.578125 39.3125 
z
" id="DejaVuSans-51"/>
      </defs>
      <g style="fill:#262626;" transform="translate(1427.874947 854.816562)scale(0.22 -0.22)">
       <use xlink:href="#DejaVuSans-48"/>
       <use x="63.623047" xlink:href="#DejaVuSans-46"/>
       <use x="95.410156" xlink:href="#DejaVuSans-51"/>
       <use x="159.033203" xlink:href="#DejaVuSans-48"/>
      </g>
     </g>
    </g>
    <g id="xtick_8">
     <g id="line2d_8">
      <path clip-path="url(#p53cf9601a3)" d="M 1605.516578 828.6 
L 1605.516578 13.2 
" style="fill:none;stroke:#cccccc;stroke-linecap:round;"/>
     </g>
     <g id="text_8">
      <!-- 0.35 -->
      <g style="fill:#262626;" transform="translate(1581.024391 854.816562)scale(0.22 -0.22)">
       <use xlink:href="#DejaVuSans-48"/>
       <use x="63.623047" xlink:href="#DejaVuSans-46"/>
       <use x="95.410156" xlink:href="#DejaVuSans-51"/>
       <use x="159.033203" xlink:href="#DejaVuSans-53"/>
      </g>
     </g>
    </g>
    <g id="text_9">
     <!-- proportion -->
     <defs>
      <path d="M 18.109375 8.203125 
L 18.109375 -20.796875 
L 9.078125 -20.796875 
L 9.078125 54.6875 
L 18.109375 54.6875 
L 18.109375 46.390625 
Q 20.953125 51.265625 25.265625 53.625 
Q 29.59375 56 35.59375 56 
Q 45.5625 56 51.78125 48.09375 
Q 58.015625 40.1875 58.015625 27.296875 
Q 58.015625 14.40625 51.78125 6.484375 
Q 45.5625 -1.421875 35.59375 -1.421875 
Q 29.59375 -1.421875 25.265625 0.953125 
Q 20.953125 3.328125 18.109375 8.203125 
z
M 48.6875 27.296875 
Q 48.6875 37.203125 44.609375 42.84375 
Q 40.53125 48.484375 33.40625 48.484375 
Q 26.265625 48.484375 22.1875 42.84375 
Q 18.109375 37.203125 18.109375 27.296875 
Q 18.109375 17.390625 22.1875 11.75 
Q 26.265625 6.109375 33.40625 6.109375 
Q 40.53125 6.109375 44.609375 11.75 
Q 48.6875 17.390625 48.6875 27.296875 
z
" id="DejaVuSans-112"/>
      <path d="M 41.109375 46.296875 
Q 39.59375 47.171875 37.8125 47.578125 
Q 36.03125 48 33.890625 48 
Q 26.265625 48 22.1875 43.046875 
Q 18.109375 38.09375 18.109375 28.8125 
L 18.109375 0 
L 9.078125 0 
L 9.078125 54.6875 
L 18.109375 54.6875 
L 18.109375 46.1875 
Q 20.953125 51.171875 25.484375 53.578125 
Q 30.03125 56 36.53125 56 
Q 37.453125 56 38.578125 55.875 
Q 39.703125 55.765625 41.0625 55.515625 
z
" id="DejaVuSans-114"/>
      <path d="M 30.609375 48.390625 
Q 23.390625 48.390625 19.1875 42.75 
Q 14.984375 37.109375 14.984375 27.296875 
Q 14.984375 17.484375 19.15625 11.84375 
Q 23.34375 6.203125 30.609375 6.203125 
Q 37.796875 6.203125 41.984375 11.859375 
Q 46.1875 17.53125 46.1875 27.296875 
Q 46.1875 37.015625 41.984375 42.703125 
Q 37.796875 48.390625 30.609375 48.390625 
z
M 30.609375 56 
Q 42.328125 56 49.015625 48.375 
Q 55.71875 40.765625 55.71875 27.296875 
Q 55.71875 13.875 49.015625 6.21875 
Q 42.328125 -1.421875 30.609375 -1.421875 
Q 18.84375 -1.421875 12.171875 6.21875 
Q 5.515625 13.875 5.515625 27.296875 
Q 5.515625 40.765625 12.171875 48.375 
Q 18.84375 56 30.609375 56 
z
" id="DejaVuSans-111"/>
      <path d="M 18.3125 70.21875 
L 18.3125 54.6875 
L 36.8125 54.6875 
L 36.8125 47.703125 
L 18.3125 47.703125 
L 18.3125 18.015625 
Q 18.3125 11.328125 20.140625 9.421875 
Q 21.96875 7.515625 27.59375 7.515625 
L 36.8125 7.515625 
L 36.8125 0 
L 27.59375 0 
Q 17.1875 0 13.234375 3.875 
Q 9.28125 7.765625 9.28125 18.015625 
L 9.28125 47.703125 
L 2.6875 47.703125 
L 2.6875 54.6875 
L 9.28125 54.6875 
L 9.28125 70.21875 
z
" id="DejaVuSans-116"/>
      <path d="M 9.421875 54.6875 
L 18.40625 54.6875 
L 18.40625 0 
L 9.421875 0 
z
M 9.421875 75.984375 
L 18.40625 75.984375 
L 18.40625 64.59375 
L 9.421875 64.59375 
z
" id="DejaVuSans-105"/>
      <path d="M 54.890625 33.015625 
L 54.890625 0 
L 45.90625 0 
L 45.90625 32.71875 
Q 45.90625 40.484375 42.875 44.328125 
Q 39.84375 48.1875 33.796875 48.1875 
Q 26.515625 48.1875 22.3125 43.546875 
Q 18.109375 38.921875 18.109375 30.90625 
L 18.109375 0 
L 9.078125 0 
L 9.078125 54.6875 
L 18.109375 54.6875 
L 18.109375 46.1875 
Q 21.34375 51.125 25.703125 53.5625 
Q 30.078125 56 35.796875 56 
Q 45.21875 56 50.046875 50.171875 
Q 54.890625 44.34375 54.890625 33.015625 
z
" id="DejaVuSans-110"/>
     </defs>
     <g style="fill:#262626;" transform="translate(1028.701094 881.628125)scale(0.24 -0.24)">
      <use xlink:href="#DejaVuSans-112"/>
      <use x="63.476562" xlink:href="#DejaVuSans-114"/>
      <use x="104.558594" xlink:href="#DejaVuSans-111"/>
      <use x="165.740234" xlink:href="#DejaVuSans-112"/>
      <use x="229.216797" xlink:href="#DejaVuSans-111"/>
      <use x="290.398438" xlink:href="#DejaVuSans-114"/>
      <use x="331.511719" xlink:href="#DejaVuSans-116"/>
      <use x="370.720703" xlink:href="#DejaVuSans-105"/>
      <use x="398.503906" xlink:href="#DejaVuSans-111"/>
      <use x="459.685547" xlink:href="#DejaVuSans-110"/>
     </g>
    </g>
   </g>
   <g id="matplotlib.axis_2">
    <g id="ytick_1">
     <g id="text_10">
      <!-- Loaded_Language -->
      <defs>
       <path d="M 9.8125 72.90625 
L 19.671875 72.90625 
L 19.671875 8.296875 
L 55.171875 8.296875 
L 55.171875 0 
L 9.8125 0 
z
" id="DejaVuSans-76"/>
       <path d="M 34.28125 27.484375 
Q 23.390625 27.484375 19.1875 25 
Q 14.984375 22.515625 14.984375 16.5 
Q 14.984375 11.71875 18.140625 8.90625 
Q 21.296875 6.109375 26.703125 6.109375 
Q 34.1875 6.109375 38.703125 11.40625 
Q 43.21875 16.703125 43.21875 25.484375 
L 43.21875 27.484375 
z
M 52.203125 31.203125 
L 52.203125 0 
L 43.21875 0 
L 43.21875 8.296875 
Q 40.140625 3.328125 35.546875 0.953125 
Q 30.953125 -1.421875 24.3125 -1.421875 
Q 15.921875 -1.421875 10.953125 3.296875 
Q 6 8.015625 6 15.921875 
Q 6 25.140625 12.171875 29.828125 
Q 18.359375 34.515625 30.609375 34.515625 
L 43.21875 34.515625 
L 43.21875 35.40625 
Q 43.21875 41.609375 39.140625 45 
Q 35.0625 48.390625 27.6875 48.390625 
Q 23 48.390625 18.546875 47.265625 
Q 14.109375 46.140625 10.015625 43.890625 
L 10.015625 52.203125 
Q 14.9375 54.109375 19.578125 55.046875 
Q 24.21875 56 28.609375 56 
Q 40.484375 56 46.34375 49.84375 
Q 52.203125 43.703125 52.203125 31.203125 
z
" id="DejaVuSans-97"/>
       <path d="M 45.40625 46.390625 
L 45.40625 75.984375 
L 54.390625 75.984375 
L 54.390625 0 
L 45.40625 0 
L 45.40625 8.203125 
Q 42.578125 3.328125 38.25 0.953125 
Q 33.9375 -1.421875 27.875 -1.421875 
Q 17.96875 -1.421875 11.734375 6.484375 
Q 5.515625 14.40625 5.515625 27.296875 
Q 5.515625 40.1875 11.734375 48.09375 
Q 17.96875 56 27.875 56 
Q 33.9375 56 38.25 53.625 
Q 42.578125 51.265625 45.40625 46.390625 
z
M 14.796875 27.296875 
Q 14.796875 17.390625 18.875 11.75 
Q 22.953125 6.109375 30.078125 6.109375 
Q 37.203125 6.109375 41.296875 11.75 
Q 45.40625 17.390625 45.40625 27.296875 
Q 45.40625 37.203125 41.296875 42.84375 
Q 37.203125 48.484375 30.078125 48.484375 
Q 22.953125 48.484375 18.875 42.84375 
Q 14.796875 37.203125 14.796875 27.296875 
z
" id="DejaVuSans-100"/>
       <path d="M 56.203125 29.59375 
L 56.203125 25.203125 
L 14.890625 25.203125 
Q 15.484375 15.921875 20.484375 11.0625 
Q 25.484375 6.203125 34.421875 6.203125 
Q 39.59375 6.203125 44.453125 7.46875 
Q 49.3125 8.734375 54.109375 11.28125 
L 54.109375 2.78125 
Q 49.265625 0.734375 44.1875 -0.34375 
Q 39.109375 -1.421875 33.890625 -1.421875 
Q 20.796875 -1.421875 13.15625 6.1875 
Q 5.515625 13.8125 5.515625 26.8125 
Q 5.515625 40.234375 12.765625 48.109375 
Q 20.015625 56 32.328125 56 
Q 43.359375 56 49.78125 48.890625 
Q 56.203125 41.796875 56.203125 29.59375 
z
M 47.21875 32.234375 
Q 47.125 39.59375 43.09375 43.984375 
Q 39.0625 48.390625 32.421875 48.390625 
Q 24.90625 48.390625 20.390625 44.140625 
Q 15.875 39.890625 15.1875 32.171875 
z
" id="DejaVuSans-101"/>
       <path d="M 50.984375 -16.609375 
L 50.984375 -23.578125 
L -0.984375 -23.578125 
L -0.984375 -16.609375 
z
" id="DejaVuSans-95"/>
       <path d="M 45.40625 27.984375 
Q 45.40625 37.75 41.375 43.109375 
Q 37.359375 48.484375 30.078125 48.484375 
Q 22.859375 48.484375 18.828125 43.109375 
Q 14.796875 37.75 14.796875 27.984375 
Q 14.796875 18.265625 18.828125 12.890625 
Q 22.859375 7.515625 30.078125 7.515625 
Q 37.359375 7.515625 41.375 12.890625 
Q 45.40625 18.265625 45.40625 27.984375 
z
M 54.390625 6.78125 
Q 54.390625 -7.171875 48.1875 -13.984375 
Q 42 -20.796875 29.203125 -20.796875 
Q 24.46875 -20.796875 20.265625 -20.09375 
Q 16.0625 -19.390625 12.109375 -17.921875 
L 12.109375 -9.1875 
Q 16.0625 -11.328125 19.921875 -12.34375 
Q 23.78125 -13.375 27.78125 -13.375 
Q 36.625 -13.375 41.015625 -8.765625 
Q 45.40625 -4.15625 45.40625 5.171875 
L 45.40625 9.625 
Q 42.625 4.78125 38.28125 2.390625 
Q 33.9375 0 27.875 0 
Q 17.828125 0 11.671875 7.65625 
Q 5.515625 15.328125 5.515625 27.984375 
Q 5.515625 40.671875 11.671875 48.328125 
Q 17.828125 56 27.875 56 
Q 33.9375 56 38.28125 53.609375 
Q 42.625 51.21875 45.40625 46.390625 
L 45.40625 54.6875 
L 54.390625 54.6875 
z
" id="DejaVuSans-103"/>
       <path d="M 8.5 21.578125 
L 8.5 54.6875 
L 17.484375 54.6875 
L 17.484375 21.921875 
Q 17.484375 14.15625 20.5 10.265625 
Q 23.53125 6.390625 29.59375 6.390625 
Q 36.859375 6.390625 41.078125 11.03125 
Q 45.3125 15.671875 45.3125 23.6875 
L 45.3125 54.6875 
L 54.296875 54.6875 
L 54.296875 0 
L 45.3125 0 
L 45.3125 8.40625 
Q 42.046875 3.421875 37.71875 1 
Q 33.40625 -1.421875 27.6875 -1.421875 
Q 18.265625 -1.421875 13.375 4.4375 
Q 8.5 10.296875 8.5 21.578125 
z
M 31.109375 56 
z
" id="DejaVuSans-117"/>
      </defs>
      <g style="fill:#262626;" transform="translate(296.419688 51.819475)scale(0.25 -0.25)">
       <use xlink:href="#DejaVuSans-76"/>
       <use x="55.697266" xlink:href="#DejaVuSans-111"/>
       <use x="116.878906" xlink:href="#DejaVuSans-97"/>
       <use x="178.158203" xlink:href="#DejaVuSans-100"/>
       <use x="241.634766" xlink:href="#DejaVuSans-101"/>
       <use x="303.158203" xlink:href="#DejaVuSans-100"/>
       <use x="366.634766" xlink:href="#DejaVuSans-95"/>
       <use x="416.634766" xlink:href="#DejaVuSans-76"/>
       <use x="472.347656" xlink:href="#DejaVuSans-97"/>
       <use x="533.626953" xlink:href="#DejaVuSans-110"/>
       <use x="597.005859" xlink:href="#DejaVuSans-103"/>
       <use x="660.482422" xlink:href="#DejaVuSans-117"/>
       <use x="723.861328" xlink:href="#DejaVuSans-97"/>
       <use x="785.140625" xlink:href="#DejaVuSans-103"/>
       <use x="848.617188" xlink:href="#DejaVuSans-101"/>
      </g>
     </g>
    </g>
    <g id="ytick_2">
     <g id="text_11">
      <!-- Name_Calling,Labeling -->
      <defs>
       <path d="M 9.8125 72.90625 
L 23.09375 72.90625 
L 55.421875 11.921875 
L 55.421875 72.90625 
L 64.984375 72.90625 
L 64.984375 0 
L 51.703125 0 
L 19.390625 60.984375 
L 19.390625 0 
L 9.8125 0 
z
" id="DejaVuSans-78"/>
       <path d="M 52 44.1875 
Q 55.375 50.25 60.0625 53.125 
Q 64.75 56 71.09375 56 
Q 79.640625 56 84.28125 50.015625 
Q 88.921875 44.046875 88.921875 33.015625 
L 88.921875 0 
L 79.890625 0 
L 79.890625 32.71875 
Q 79.890625 40.578125 77.09375 44.375 
Q 74.3125 48.1875 68.609375 48.1875 
Q 61.625 48.1875 57.5625 43.546875 
Q 53.515625 38.921875 53.515625 30.90625 
L 53.515625 0 
L 44.484375 0 
L 44.484375 32.71875 
Q 44.484375 40.625 41.703125 44.40625 
Q 38.921875 48.1875 33.109375 48.1875 
Q 26.21875 48.1875 22.15625 43.53125 
Q 18.109375 38.875 18.109375 30.90625 
L 18.109375 0 
L 9.078125 0 
L 9.078125 54.6875 
L 18.109375 54.6875 
L 18.109375 46.1875 
Q 21.1875 51.21875 25.484375 53.609375 
Q 29.78125 56 35.6875 56 
Q 41.65625 56 45.828125 52.96875 
Q 50 49.953125 52 44.1875 
z
" id="DejaVuSans-109"/>
       <path d="M 64.40625 67.28125 
L 64.40625 56.890625 
Q 59.421875 61.53125 53.78125 63.8125 
Q 48.140625 66.109375 41.796875 66.109375 
Q 29.296875 66.109375 22.65625 58.46875 
Q 16.015625 50.828125 16.015625 36.375 
Q 16.015625 21.96875 22.65625 14.328125 
Q 29.296875 6.6875 41.796875 6.6875 
Q 48.140625 6.6875 53.78125 8.984375 
Q 59.421875 11.28125 64.40625 15.921875 
L 64.40625 5.609375 
Q 59.234375 2.09375 53.4375 0.328125 
Q 47.65625 -1.421875 41.21875 -1.421875 
Q 24.65625 -1.421875 15.125 8.703125 
Q 5.609375 18.84375 5.609375 36.375 
Q 5.609375 53.953125 15.125 64.078125 
Q 24.65625 74.21875 41.21875 74.21875 
Q 47.75 74.21875 53.53125 72.484375 
Q 59.328125 70.75 64.40625 67.28125 
z
" id="DejaVuSans-67"/>
       <path d="M 9.421875 75.984375 
L 18.40625 75.984375 
L 18.40625 0 
L 9.421875 0 
z
" id="DejaVuSans-108"/>
       <path d="M 11.71875 12.40625 
L 22.015625 12.40625 
L 22.015625 4 
L 14.015625 -11.625 
L 7.71875 -11.625 
L 11.71875 4 
z
" id="DejaVuSans-44"/>
       <path d="M 48.6875 27.296875 
Q 48.6875 37.203125 44.609375 42.84375 
Q 40.53125 48.484375 33.40625 48.484375 
Q 26.265625 48.484375 22.1875 42.84375 
Q 18.109375 37.203125 18.109375 27.296875 
Q 18.109375 17.390625 22.1875 11.75 
Q 26.265625 6.109375 33.40625 6.109375 
Q 40.53125 6.109375 44.609375 11.75 
Q 48.6875 17.390625 48.6875 27.296875 
z
M 18.109375 46.390625 
Q 20.953125 51.265625 25.265625 53.625 
Q 29.59375 56 35.59375 56 
Q 45.5625 56 51.78125 48.09375 
Q 58.015625 40.1875 58.015625 27.296875 
Q 58.015625 14.40625 51.78125 6.484375 
Q 45.5625 -1.421875 35.59375 -1.421875 
Q 29.59375 -1.421875 25.265625 0.953125 
Q 20.953125 3.328125 18.109375 8.203125 
L 18.109375 0 
L 9.078125 0 
L 9.078125 75.984375 
L 18.109375 75.984375 
z
" id="DejaVuSans-98"/>
      </defs>
      <g style="fill:#262626;" transform="translate(238.329844 110.062333)scale(0.25 -0.25)">
       <use xlink:href="#DejaVuSans-78"/>
       <use x="74.804688" xlink:href="#DejaVuSans-97"/>
       <use x="136.083984" xlink:href="#DejaVuSans-109"/>
       <use x="233.496094" xlink:href="#DejaVuSans-101"/>
       <use x="295.019531" xlink:href="#DejaVuSans-95"/>
       <use x="345.019531" xlink:href="#DejaVuSans-67"/>
       <use x="414.84375" xlink:href="#DejaVuSans-97"/>
       <use x="476.123047" xlink:href="#DejaVuSans-108"/>
       <use x="503.90625" xlink:href="#DejaVuSans-108"/>
       <use x="531.689453" xlink:href="#DejaVuSans-105"/>
       <use x="559.472656" xlink:href="#DejaVuSans-110"/>
       <use x="622.851562" xlink:href="#DejaVuSans-103"/>
       <use x="686.328125" xlink:href="#DejaVuSans-44"/>
       <use x="718.115234" xlink:href="#DejaVuSans-76"/>
       <use x="773.828125" xlink:href="#DejaVuSans-97"/>
       <use x="835.107422" xlink:href="#DejaVuSans-98"/>
       <use x="898.583984" xlink:href="#DejaVuSans-101"/>
       <use x="960.107422" xlink:href="#DejaVuSans-108"/>
       <use x="987.890625" xlink:href="#DejaVuSans-105"/>
       <use x="1015.673828" xlink:href="#DejaVuSans-110"/>
       <use x="1079.052734" xlink:href="#DejaVuSans-103"/>
      </g>
     </g>
    </g>
    <g id="ytick_3">
     <g id="text_12">
      <!-- Repetition -->
      <defs>
       <path d="M 44.390625 34.1875 
Q 47.5625 33.109375 50.5625 29.59375 
Q 53.5625 26.078125 56.59375 19.921875 
L 66.609375 0 
L 56 0 
L 46.6875 18.703125 
Q 43.0625 26.03125 39.671875 28.421875 
Q 36.28125 30.8125 30.421875 30.8125 
L 19.671875 30.8125 
L 19.671875 0 
L 9.8125 0 
L 9.8125 72.90625 
L 32.078125 72.90625 
Q 44.578125 72.90625 50.734375 67.671875 
Q 56.890625 62.453125 56.890625 51.90625 
Q 56.890625 45.015625 53.6875 40.46875 
Q 50.484375 35.9375 44.390625 34.1875 
z
M 19.671875 64.796875 
L 19.671875 38.921875 
L 32.078125 38.921875 
Q 39.203125 38.921875 42.84375 42.21875 
Q 46.484375 45.515625 46.484375 51.90625 
Q 46.484375 58.296875 42.84375 61.546875 
Q 39.203125 64.796875 32.078125 64.796875 
z
" id="DejaVuSans-82"/>
      </defs>
      <g style="fill:#262626;" transform="translate(395.345469 168.30519)scale(0.25 -0.25)">
       <use xlink:href="#DejaVuSans-82"/>
       <use x="69.419922" xlink:href="#DejaVuSans-101"/>
       <use x="130.943359" xlink:href="#DejaVuSans-112"/>
       <use x="194.419922" xlink:href="#DejaVuSans-101"/>
       <use x="255.943359" xlink:href="#DejaVuSans-116"/>
       <use x="295.152344" xlink:href="#DejaVuSans-105"/>
       <use x="322.935547" xlink:href="#DejaVuSans-116"/>
       <use x="362.144531" xlink:href="#DejaVuSans-105"/>
       <use x="389.927734" xlink:href="#DejaVuSans-111"/>
       <use x="451.109375" xlink:href="#DejaVuSans-110"/>
      </g>
     </g>
    </g>
    <g id="ytick_4">
     <g id="text_13">
      <!-- Flag-Waving -->
      <defs>
       <path d="M 9.8125 72.90625 
L 51.703125 72.90625 
L 51.703125 64.59375 
L 19.671875 64.59375 
L 19.671875 43.109375 
L 48.578125 43.109375 
L 48.578125 34.8125 
L 19.671875 34.8125 
L 19.671875 0 
L 9.8125 0 
z
" id="DejaVuSans-70"/>
       <path d="M 4.890625 31.390625 
L 31.203125 31.390625 
L 31.203125 23.390625 
L 4.890625 23.390625 
z
" id="DejaVuSans-45"/>
       <path d="M 3.328125 72.90625 
L 13.28125 72.90625 
L 28.609375 11.28125 
L 43.890625 72.90625 
L 54.984375 72.90625 
L 70.3125 11.28125 
L 85.59375 72.90625 
L 95.609375 72.90625 
L 77.296875 0 
L 64.890625 0 
L 49.515625 63.28125 
L 33.984375 0 
L 21.578125 0 
z
" id="DejaVuSans-87"/>
       <path d="M 2.984375 54.6875 
L 12.5 54.6875 
L 29.59375 8.796875 
L 46.6875 54.6875 
L 56.203125 54.6875 
L 35.6875 0 
L 23.484375 0 
z
" id="DejaVuSans-118"/>
      </defs>
      <g style="fill:#262626;" transform="translate(368.978281 226.548047)scale(0.25 -0.25)">
       <use xlink:href="#DejaVuSans-70"/>
       <use x="57.519531" xlink:href="#DejaVuSans-108"/>
       <use x="85.302734" xlink:href="#DejaVuSans-97"/>
       <use x="146.582031" xlink:href="#DejaVuSans-103"/>
       <use x="210.058594" xlink:href="#DejaVuSans-45"/>
       <use x="246.080078" xlink:href="#DejaVuSans-87"/>
       <use x="344.863281" xlink:href="#DejaVuSans-97"/>
       <use x="406.142578" xlink:href="#DejaVuSans-118"/>
       <use x="465.322266" xlink:href="#DejaVuSans-105"/>
       <use x="493.105469" xlink:href="#DejaVuSans-110"/>
       <use x="556.484375" xlink:href="#DejaVuSans-103"/>
      </g>
     </g>
    </g>
    <g id="ytick_5">
     <g id="text_14">
      <!-- Doubt -->
      <defs>
       <path d="M 19.671875 64.796875 
L 19.671875 8.109375 
L 31.59375 8.109375 
Q 46.6875 8.109375 53.6875 14.9375 
Q 60.6875 21.78125 60.6875 36.53125 
Q 60.6875 51.171875 53.6875 57.984375 
Q 46.6875 64.796875 31.59375 64.796875 
z
M 9.8125 72.90625 
L 30.078125 72.90625 
Q 51.265625 72.90625 61.171875 64.09375 
Q 71.09375 55.28125 71.09375 36.53125 
Q 71.09375 17.671875 61.125 8.828125 
Q 51.171875 0 30.078125 0 
L 9.8125 0 
z
" id="DejaVuSans-68"/>
      </defs>
      <g style="fill:#262626;" transform="translate(447.907969 284.790904)scale(0.25 -0.25)">
       <use xlink:href="#DejaVuSans-68"/>
       <use x="77.001953" xlink:href="#DejaVuSans-111"/>
       <use x="138.183594" xlink:href="#DejaVuSans-117"/>
       <use x="201.5625" xlink:href="#DejaVuSans-98"/>
       <use x="265.039062" xlink:href="#DejaVuSans-116"/>
      </g>
     </g>
    </g>
    <g id="ytick_6">
     <g id="text_15">
      <!-- Exaggeration,Minimisation -->
      <defs>
       <path d="M 9.8125 72.90625 
L 55.90625 72.90625 
L 55.90625 64.59375 
L 19.671875 64.59375 
L 19.671875 43.015625 
L 54.390625 43.015625 
L 54.390625 34.71875 
L 19.671875 34.71875 
L 19.671875 8.296875 
L 56.78125 8.296875 
L 56.78125 0 
L 9.8125 0 
z
" id="DejaVuSans-69"/>
       <path d="M 54.890625 54.6875 
L 35.109375 28.078125 
L 55.90625 0 
L 45.3125 0 
L 29.390625 21.484375 
L 13.484375 0 
L 2.875 0 
L 24.125 28.609375 
L 4.6875 54.6875 
L 15.28125 54.6875 
L 29.78125 35.203125 
L 44.28125 54.6875 
z
" id="DejaVuSans-120"/>
       <path d="M 9.8125 72.90625 
L 24.515625 72.90625 
L 43.109375 23.296875 
L 61.8125 72.90625 
L 76.515625 72.90625 
L 76.515625 0 
L 66.890625 0 
L 66.890625 64.015625 
L 48.09375 14.015625 
L 38.1875 14.015625 
L 19.390625 64.015625 
L 19.390625 0 
L 9.8125 0 
z
" id="DejaVuSans-77"/>
       <path d="M 44.28125 53.078125 
L 44.28125 44.578125 
Q 40.484375 46.53125 36.375 47.5 
Q 32.28125 48.484375 27.875 48.484375 
Q 21.1875 48.484375 17.84375 46.4375 
Q 14.5 44.390625 14.5 40.28125 
Q 14.5 37.15625 16.890625 35.375 
Q 19.28125 33.59375 26.515625 31.984375 
L 29.59375 31.296875 
Q 39.15625 29.25 43.1875 25.515625 
Q 47.21875 21.78125 47.21875 15.09375 
Q 47.21875 7.46875 41.1875 3.015625 
Q 35.15625 -1.421875 24.609375 -1.421875 
Q 20.21875 -1.421875 15.453125 -0.5625 
Q 10.6875 0.296875 5.421875 2 
L 5.421875 11.28125 
Q 10.40625 8.6875 15.234375 7.390625 
Q 20.0625 6.109375 24.8125 6.109375 
Q 31.15625 6.109375 34.5625 8.28125 
Q 37.984375 10.453125 37.984375 14.40625 
Q 37.984375 18.0625 35.515625 20.015625 
Q 33.0625 21.96875 24.703125 23.78125 
L 21.578125 24.515625 
Q 13.234375 26.265625 9.515625 29.90625 
Q 5.8125 33.546875 5.8125 39.890625 
Q 5.8125 47.609375 11.28125 51.796875 
Q 16.75 56 26.8125 56 
Q 31.78125 56 36.171875 55.265625 
Q 40.578125 54.546875 44.28125 53.078125 
z
" id="DejaVuSans-115"/>
      </defs>
      <g style="fill:#262626;" transform="translate(190.669688 343.033761)scale(0.25 -0.25)">
       <use xlink:href="#DejaVuSans-69"/>
       <use x="63.183594" xlink:href="#DejaVuSans-120"/>
       <use x="122.363281" xlink:href="#DejaVuSans-97"/>
       <use x="183.642578" xlink:href="#DejaVuSans-103"/>
       <use x="247.119141" xlink:href="#DejaVuSans-103"/>
       <use x="310.595703" xlink:href="#DejaVuSans-101"/>
       <use x="372.119141" xlink:href="#DejaVuSans-114"/>
       <use x="413.232422" xlink:href="#DejaVuSans-97"/>
       <use x="474.511719" xlink:href="#DejaVuSans-116"/>
       <use x="513.720703" xlink:href="#DejaVuSans-105"/>
       <use x="541.503906" xlink:href="#DejaVuSans-111"/>
       <use x="602.685547" xlink:href="#DejaVuSans-110"/>
       <use x="666.064453" xlink:href="#DejaVuSans-44"/>
       <use x="697.851562" xlink:href="#DejaVuSans-77"/>
       <use x="784.130859" xlink:href="#DejaVuSans-105"/>
       <use x="811.914062" xlink:href="#DejaVuSans-110"/>
       <use x="875.292969" xlink:href="#DejaVuSans-105"/>
       <use x="903.076172" xlink:href="#DejaVuSans-109"/>
       <use x="1000.488281" xlink:href="#DejaVuSans-105"/>
       <use x="1028.271484" xlink:href="#DejaVuSans-115"/>
       <use x="1080.371094" xlink:href="#DejaVuSans-97"/>
       <use x="1141.650391" xlink:href="#DejaVuSans-116"/>
       <use x="1180.859375" xlink:href="#DejaVuSans-105"/>
       <use x="1208.642578" xlink:href="#DejaVuSans-111"/>
       <use x="1269.824219" xlink:href="#DejaVuSans-110"/>
      </g>
     </g>
    </g>
    <g id="ytick_7">
     <g id="text_16">
      <!-- Appeal_to_fear-prejudice -->
      <defs>
       <path d="M 34.1875 63.1875 
L 20.796875 26.90625 
L 47.609375 26.90625 
z
M 28.609375 72.90625 
L 39.796875 72.90625 
L 67.578125 0 
L 57.328125 0 
L 50.6875 18.703125 
L 17.828125 18.703125 
L 11.1875 0 
L 0.78125 0 
z
" id="DejaVuSans-65"/>
       <path d="M 37.109375 75.984375 
L 37.109375 68.5 
L 28.515625 68.5 
Q 23.6875 68.5 21.796875 66.546875 
Q 19.921875 64.59375 19.921875 59.515625 
L 19.921875 54.6875 
L 34.71875 54.6875 
L 34.71875 47.703125 
L 19.921875 47.703125 
L 19.921875 0 
L 10.890625 0 
L 10.890625 47.703125 
L 2.296875 47.703125 
L 2.296875 54.6875 
L 10.890625 54.6875 
L 10.890625 58.5 
Q 10.890625 67.625 15.140625 71.796875 
Q 19.390625 75.984375 28.609375 75.984375 
z
" id="DejaVuSans-102"/>
       <path d="M 9.421875 54.6875 
L 18.40625 54.6875 
L 18.40625 -0.984375 
Q 18.40625 -11.421875 14.421875 -16.109375 
Q 10.453125 -20.796875 1.609375 -20.796875 
L -1.8125 -20.796875 
L -1.8125 -13.1875 
L 0.59375 -13.1875 
Q 5.71875 -13.1875 7.5625 -10.8125 
Q 9.421875 -8.453125 9.421875 -0.984375 
z
M 9.421875 75.984375 
L 18.40625 75.984375 
L 18.40625 64.59375 
L 9.421875 64.59375 
z
" id="DejaVuSans-106"/>
       <path d="M 48.78125 52.59375 
L 48.78125 44.1875 
Q 44.96875 46.296875 41.140625 47.34375 
Q 37.3125 48.390625 33.40625 48.390625 
Q 24.65625 48.390625 19.8125 42.84375 
Q 14.984375 37.3125 14.984375 27.296875 
Q 14.984375 17.28125 19.8125 11.734375 
Q 24.65625 6.203125 33.40625 6.203125 
Q 37.3125 6.203125 41.140625 7.25 
Q 44.96875 8.296875 48.78125 10.40625 
L 48.78125 2.09375 
Q 45.015625 0.34375 40.984375 -0.53125 
Q 36.96875 -1.421875 32.421875 -1.421875 
Q 20.0625 -1.421875 12.78125 6.34375 
Q 5.515625 14.109375 5.515625 27.296875 
Q 5.515625 40.671875 12.859375 48.328125 
Q 20.21875 56 33.015625 56 
Q 37.15625 56 41.109375 55.140625 
Q 45.0625 54.296875 48.78125 52.59375 
z
" id="DejaVuSans-99"/>
      </defs>
      <g style="fill:#262626;" transform="translate(212.345469 401.276618)scale(0.25 -0.25)">
       <use xlink:href="#DejaVuSans-65"/>
       <use x="68.408203" xlink:href="#DejaVuSans-112"/>
       <use x="131.884766" xlink:href="#DejaVuSans-112"/>
       <use x="195.361328" xlink:href="#DejaVuSans-101"/>
       <use x="256.884766" xlink:href="#DejaVuSans-97"/>
       <use x="318.164062" xlink:href="#DejaVuSans-108"/>
       <use x="345.947266" xlink:href="#DejaVuSans-95"/>
       <use x="395.947266" xlink:href="#DejaVuSans-116"/>
       <use x="435.15625" xlink:href="#DejaVuSans-111"/>
       <use x="496.337891" xlink:href="#DejaVuSans-95"/>
       <use x="546.337891" xlink:href="#DejaVuSans-102"/>
       <use x="581.542969" xlink:href="#DejaVuSans-101"/>
       <use x="643.066406" xlink:href="#DejaVuSans-97"/>
       <use x="704.345703" xlink:href="#DejaVuSans-114"/>
       <use x="745.365234" xlink:href="#DejaVuSans-45"/>
       <use x="781.449219" xlink:href="#DejaVuSans-112"/>
       <use x="844.925781" xlink:href="#DejaVuSans-114"/>
       <use x="886.007812" xlink:href="#DejaVuSans-101"/>
       <use x="947.53125" xlink:href="#DejaVuSans-106"/>
       <use x="975.314453" xlink:href="#DejaVuSans-117"/>
       <use x="1038.693359" xlink:href="#DejaVuSans-100"/>
       <use x="1102.169922" xlink:href="#DejaVuSans-105"/>
       <use x="1129.953125" xlink:href="#DejaVuSans-99"/>
       <use x="1184.933594" xlink:href="#DejaVuSans-101"/>
      </g>
     </g>
    </g>
    <g id="ytick_8">
     <g id="text_17">
      <!-- Slogans -->
      <defs>
       <path d="M 53.515625 70.515625 
L 53.515625 60.890625 
Q 47.90625 63.578125 42.921875 64.890625 
Q 37.9375 66.21875 33.296875 66.21875 
Q 25.25 66.21875 20.875 63.09375 
Q 16.5 59.96875 16.5 54.203125 
Q 16.5 49.359375 19.40625 46.890625 
Q 22.3125 44.4375 30.421875 42.921875 
L 36.375 41.703125 
Q 47.40625 39.59375 52.65625 34.296875 
Q 57.90625 29 57.90625 20.125 
Q 57.90625 9.515625 50.796875 4.046875 
Q 43.703125 -1.421875 29.984375 -1.421875 
Q 24.8125 -1.421875 18.96875 -0.25 
Q 13.140625 0.921875 6.890625 3.21875 
L 6.890625 13.375 
Q 12.890625 10.015625 18.65625 8.296875 
Q 24.421875 6.59375 29.984375 6.59375 
Q 38.421875 6.59375 43.015625 9.90625 
Q 47.609375 13.234375 47.609375 19.390625 
Q 47.609375 24.75 44.3125 27.78125 
Q 41.015625 30.8125 33.5 32.328125 
L 27.484375 33.5 
Q 16.453125 35.6875 11.515625 40.375 
Q 6.59375 45.0625 6.59375 53.421875 
Q 6.59375 63.09375 13.40625 68.65625 
Q 20.21875 74.21875 32.171875 74.21875 
Q 37.3125 74.21875 42.625 73.28125 
Q 47.953125 72.359375 53.515625 70.515625 
z
" id="DejaVuSans-83"/>
      </defs>
      <g style="fill:#262626;" transform="translate(425.798594 459.519475)scale(0.25 -0.25)">
       <use xlink:href="#DejaVuSans-83"/>
       <use x="63.476562" xlink:href="#DejaVuSans-108"/>
       <use x="91.259766" xlink:href="#DejaVuSans-111"/>
       <use x="152.441406" xlink:href="#DejaVuSans-103"/>
       <use x="215.917969" xlink:href="#DejaVuSans-97"/>
       <use x="277.197266" xlink:href="#DejaVuSans-110"/>
       <use x="340.576172" xlink:href="#DejaVuSans-115"/>
      </g>
     </g>
    </g>
    <g id="ytick_9">
     <g id="text_18">
      <!-- Causal_Oversimplification -->
      <defs>
       <path d="M 39.40625 66.21875 
Q 28.65625 66.21875 22.328125 58.203125 
Q 16.015625 50.203125 16.015625 36.375 
Q 16.015625 22.609375 22.328125 14.59375 
Q 28.65625 6.59375 39.40625 6.59375 
Q 50.140625 6.59375 56.421875 14.59375 
Q 62.703125 22.609375 62.703125 36.375 
Q 62.703125 50.203125 56.421875 58.203125 
Q 50.140625 66.21875 39.40625 66.21875 
z
M 39.40625 74.21875 
Q 54.734375 74.21875 63.90625 63.9375 
Q 73.09375 53.65625 73.09375 36.375 
Q 73.09375 19.140625 63.90625 8.859375 
Q 54.734375 -1.421875 39.40625 -1.421875 
Q 24.03125 -1.421875 14.8125 8.828125 
Q 5.609375 19.09375 5.609375 36.375 
Q 5.609375 53.65625 14.8125 63.9375 
Q 24.03125 74.21875 39.40625 74.21875 
z
" id="DejaVuSans-79"/>
      </defs>
      <g style="fill:#262626;" transform="translate(200.642344 517.762333)scale(0.25 -0.25)">
       <use xlink:href="#DejaVuSans-67"/>
       <use x="69.824219" xlink:href="#DejaVuSans-97"/>
       <use x="131.103516" xlink:href="#DejaVuSans-117"/>
       <use x="194.482422" xlink:href="#DejaVuSans-115"/>
       <use x="246.582031" xlink:href="#DejaVuSans-97"/>
       <use x="307.861328" xlink:href="#DejaVuSans-108"/>
       <use x="335.644531" xlink:href="#DejaVuSans-95"/>
       <use x="385.644531" xlink:href="#DejaVuSans-79"/>
       <use x="464.355469" xlink:href="#DejaVuSans-118"/>
       <use x="523.535156" xlink:href="#DejaVuSans-101"/>
       <use x="585.058594" xlink:href="#DejaVuSans-114"/>
       <use x="626.171875" xlink:href="#DejaVuSans-115"/>
       <use x="678.271484" xlink:href="#DejaVuSans-105"/>
       <use x="706.054688" xlink:href="#DejaVuSans-109"/>
       <use x="803.466797" xlink:href="#DejaVuSans-112"/>
       <use x="866.943359" xlink:href="#DejaVuSans-108"/>
       <use x="894.726562" xlink:href="#DejaVuSans-105"/>
       <use x="922.509766" xlink:href="#DejaVuSans-102"/>
       <use x="957.714844" xlink:href="#DejaVuSans-105"/>
       <use x="985.498047" xlink:href="#DejaVuSans-99"/>
       <use x="1040.478516" xlink:href="#DejaVuSans-97"/>
       <use x="1101.757812" xlink:href="#DejaVuSans-116"/>
       <use x="1140.966797" xlink:href="#DejaVuSans-105"/>
       <use x="1168.75" xlink:href="#DejaVuSans-111"/>
       <use x="1229.931641" xlink:href="#DejaVuSans-110"/>
      </g>
     </g>
    </g>
    <g id="ytick_10">
     <g id="text_19">
      <!-- Whataboutism,Straw_Men,Red_Herring -->
      <defs>
       <path d="M 54.890625 33.015625 
L 54.890625 0 
L 45.90625 0 
L 45.90625 32.71875 
Q 45.90625 40.484375 42.875 44.328125 
Q 39.84375 48.1875 33.796875 48.1875 
Q 26.515625 48.1875 22.3125 43.546875 
Q 18.109375 38.921875 18.109375 30.90625 
L 18.109375 0 
L 9.078125 0 
L 9.078125 75.984375 
L 18.109375 75.984375 
L 18.109375 46.1875 
Q 21.34375 51.125 25.703125 53.5625 
Q 30.078125 56 35.796875 56 
Q 45.21875 56 50.046875 50.171875 
Q 54.890625 44.34375 54.890625 33.015625 
z
" id="DejaVuSans-104"/>
       <path d="M 4.203125 54.6875 
L 13.1875 54.6875 
L 24.421875 12.015625 
L 35.59375 54.6875 
L 46.1875 54.6875 
L 57.421875 12.015625 
L 68.609375 54.6875 
L 77.59375 54.6875 
L 63.28125 0 
L 52.6875 0 
L 40.921875 44.828125 
L 29.109375 0 
L 18.5 0 
z
" id="DejaVuSans-119"/>
       <path d="M 9.8125 72.90625 
L 19.671875 72.90625 
L 19.671875 43.015625 
L 55.515625 43.015625 
L 55.515625 72.90625 
L 65.375 72.90625 
L 65.375 0 
L 55.515625 0 
L 55.515625 34.71875 
L 19.671875 34.71875 
L 19.671875 0 
L 9.8125 0 
z
" id="DejaVuSans-72"/>
      </defs>
      <g style="fill:#262626;" transform="translate(34.4275 576.00519)scale(0.25 -0.25)">
       <use xlink:href="#DejaVuSans-87"/>
       <use x="98.876953" xlink:href="#DejaVuSans-104"/>
       <use x="162.255859" xlink:href="#DejaVuSans-97"/>
       <use x="223.535156" xlink:href="#DejaVuSans-116"/>
       <use x="262.744141" xlink:href="#DejaVuSans-97"/>
       <use x="324.023438" xlink:href="#DejaVuSans-98"/>
       <use x="387.5" xlink:href="#DejaVuSans-111"/>
       <use x="448.681641" xlink:href="#DejaVuSans-117"/>
       <use x="512.060547" xlink:href="#DejaVuSans-116"/>
       <use x="551.269531" xlink:href="#DejaVuSans-105"/>
       <use x="579.052734" xlink:href="#DejaVuSans-115"/>
       <use x="631.152344" xlink:href="#DejaVuSans-109"/>
       <use x="728.564453" xlink:href="#DejaVuSans-44"/>
       <use x="760.351562" xlink:href="#DejaVuSans-83"/>
       <use x="823.828125" xlink:href="#DejaVuSans-116"/>
       <use x="863.037109" xlink:href="#DejaVuSans-114"/>
       <use x="904.150391" xlink:href="#DejaVuSans-97"/>
       <use x="965.429688" xlink:href="#DejaVuSans-119"/>
       <use x="1047.216797" xlink:href="#DejaVuSans-95"/>
       <use x="1097.216797" xlink:href="#DejaVuSans-77"/>
       <use x="1183.496094" xlink:href="#DejaVuSans-101"/>
       <use x="1245.019531" xlink:href="#DejaVuSans-110"/>
       <use x="1308.398438" xlink:href="#DejaVuSans-44"/>
       <use x="1340.185547" xlink:href="#DejaVuSans-82"/>
       <use x="1409.605469" xlink:href="#DejaVuSans-101"/>
       <use x="1471.128906" xlink:href="#DejaVuSans-100"/>
       <use x="1534.605469" xlink:href="#DejaVuSans-95"/>
       <use x="1584.605469" xlink:href="#DejaVuSans-72"/>
       <use x="1659.800781" xlink:href="#DejaVuSans-101"/>
       <use x="1721.324219" xlink:href="#DejaVuSans-114"/>
       <use x="1762.421875" xlink:href="#DejaVuSans-114"/>
       <use x="1803.535156" xlink:href="#DejaVuSans-105"/>
       <use x="1831.318359" xlink:href="#DejaVuSans-110"/>
       <use x="1894.697266" xlink:href="#DejaVuSans-103"/>
      </g>
     </g>
    </g>
    <g id="ytick_11">
     <g id="text_20">
      <!-- Appeal_to_Authority -->
      <defs>
       <path d="M 32.171875 -5.078125 
Q 28.375 -14.84375 24.75 -17.8125 
Q 21.140625 -20.796875 15.09375 -20.796875 
L 7.90625 -20.796875 
L 7.90625 -13.28125 
L 13.1875 -13.28125 
Q 16.890625 -13.28125 18.9375 -11.515625 
Q 21 -9.765625 23.484375 -3.21875 
L 25.09375 0.875 
L 2.984375 54.6875 
L 12.5 54.6875 
L 29.59375 11.921875 
L 46.6875 54.6875 
L 56.203125 54.6875 
z
" id="DejaVuSans-121"/>
      </defs>
      <g style="fill:#262626;" transform="translate(271.673594 634.248047)scale(0.25 -0.25)">
       <use xlink:href="#DejaVuSans-65"/>
       <use x="68.408203" xlink:href="#DejaVuSans-112"/>
       <use x="131.884766" xlink:href="#DejaVuSans-112"/>
       <use x="195.361328" xlink:href="#DejaVuSans-101"/>
       <use x="256.884766" xlink:href="#DejaVuSans-97"/>
       <use x="318.164062" xlink:href="#DejaVuSans-108"/>
       <use x="345.947266" xlink:href="#DejaVuSans-95"/>
       <use x="395.947266" xlink:href="#DejaVuSans-116"/>
       <use x="435.15625" xlink:href="#DejaVuSans-111"/>
       <use x="496.337891" xlink:href="#DejaVuSans-95"/>
       <use x="546.337891" xlink:href="#DejaVuSans-65"/>
       <use x="614.746094" xlink:href="#DejaVuSans-117"/>
       <use x="678.125" xlink:href="#DejaVuSans-116"/>
       <use x="717.333984" xlink:href="#DejaVuSans-104"/>
       <use x="780.712891" xlink:href="#DejaVuSans-111"/>
       <use x="841.894531" xlink:href="#DejaVuSans-114"/>
       <use x="883.007812" xlink:href="#DejaVuSans-105"/>
       <use x="910.791016" xlink:href="#DejaVuSans-116"/>
       <use x="950" xlink:href="#DejaVuSans-121"/>
      </g>
     </g>
    </g>
    <g id="ytick_12">
     <g id="text_21">
      <!-- Black-and-White_Fallacy -->
      <defs>
       <path d="M 19.671875 34.8125 
L 19.671875 8.109375 
L 35.5 8.109375 
Q 43.453125 8.109375 47.28125 11.40625 
Q 51.125 14.703125 51.125 21.484375 
Q 51.125 28.328125 47.28125 31.5625 
Q 43.453125 34.8125 35.5 34.8125 
z
M 19.671875 64.796875 
L 19.671875 42.828125 
L 34.28125 42.828125 
Q 41.5 42.828125 45.03125 45.53125 
Q 48.578125 48.25 48.578125 53.8125 
Q 48.578125 59.328125 45.03125 62.0625 
Q 41.5 64.796875 34.28125 64.796875 
z
M 9.8125 72.90625 
L 35.015625 72.90625 
Q 46.296875 72.90625 52.390625 68.21875 
Q 58.5 63.53125 58.5 54.890625 
Q 58.5 48.1875 55.375 44.234375 
Q 52.25 40.28125 46.1875 39.3125 
Q 53.46875 37.75 57.5 32.78125 
Q 61.53125 27.828125 61.53125 20.40625 
Q 61.53125 10.640625 54.890625 5.3125 
Q 48.25 0 35.984375 0 
L 9.8125 0 
z
" id="DejaVuSans-66"/>
       <path d="M 9.078125 75.984375 
L 18.109375 75.984375 
L 18.109375 31.109375 
L 44.921875 54.6875 
L 56.390625 54.6875 
L 27.390625 29.109375 
L 57.625 0 
L 45.90625 0 
L 18.109375 26.703125 
L 18.109375 0 
L 9.078125 0 
z
" id="DejaVuSans-107"/>
      </defs>
      <g style="fill:#262626;" transform="translate(218.661875 692.490904)scale(0.25 -0.25)">
       <use xlink:href="#DejaVuSans-66"/>
       <use x="68.603516" xlink:href="#DejaVuSans-108"/>
       <use x="96.386719" xlink:href="#DejaVuSans-97"/>
       <use x="157.666016" xlink:href="#DejaVuSans-99"/>
       <use x="212.646484" xlink:href="#DejaVuSans-107"/>
       <use x="270.556641" xlink:href="#DejaVuSans-45"/>
       <use x="306.640625" xlink:href="#DejaVuSans-97"/>
       <use x="367.919922" xlink:href="#DejaVuSans-110"/>
       <use x="431.298828" xlink:href="#DejaVuSans-100"/>
       <use x="494.775391" xlink:href="#DejaVuSans-45"/>
       <use x="530.796875" xlink:href="#DejaVuSans-87"/>
       <use x="629.673828" xlink:href="#DejaVuSans-104"/>
       <use x="693.052734" xlink:href="#DejaVuSans-105"/>
       <use x="720.835938" xlink:href="#DejaVuSans-116"/>
       <use x="760.044922" xlink:href="#DejaVuSans-101"/>
       <use x="821.568359" xlink:href="#DejaVuSans-95"/>
       <use x="871.568359" xlink:href="#DejaVuSans-70"/>
       <use x="928.947266" xlink:href="#DejaVuSans-97"/>
       <use x="990.226562" xlink:href="#DejaVuSans-108"/>
       <use x="1018.009766" xlink:href="#DejaVuSans-108"/>
       <use x="1045.792969" xlink:href="#DejaVuSans-97"/>
       <use x="1107.072266" xlink:href="#DejaVuSans-99"/>
       <use x="1162.052734" xlink:href="#DejaVuSans-121"/>
      </g>
     </g>
    </g>
    <g id="ytick_13">
     <g id="text_22">
      <!-- Thought-terminating_Cliches -->
      <defs>
       <path d="M -0.296875 72.90625 
L 61.375 72.90625 
L 61.375 64.59375 
L 35.5 64.59375 
L 35.5 0 
L 25.59375 0 
L 25.59375 64.59375 
L -0.296875 64.59375 
z
" id="DejaVuSans-84"/>
      </defs>
      <g style="fill:#262626;" transform="translate(162.95875 750.733761)scale(0.25 -0.25)">
       <use xlink:href="#DejaVuSans-84"/>
       <use x="61.083984" xlink:href="#DejaVuSans-104"/>
       <use x="124.462891" xlink:href="#DejaVuSans-111"/>
       <use x="185.644531" xlink:href="#DejaVuSans-117"/>
       <use x="249.023438" xlink:href="#DejaVuSans-103"/>
       <use x="312.5" xlink:href="#DejaVuSans-104"/>
       <use x="375.878906" xlink:href="#DejaVuSans-116"/>
       <use x="415.087891" xlink:href="#DejaVuSans-45"/>
       <use x="451.171875" xlink:href="#DejaVuSans-116"/>
       <use x="490.380859" xlink:href="#DejaVuSans-101"/>
       <use x="551.904297" xlink:href="#DejaVuSans-114"/>
       <use x="593.001953" xlink:href="#DejaVuSans-109"/>
       <use x="690.414062" xlink:href="#DejaVuSans-105"/>
       <use x="718.197266" xlink:href="#DejaVuSans-110"/>
       <use x="781.576172" xlink:href="#DejaVuSans-97"/>
       <use x="842.855469" xlink:href="#DejaVuSans-116"/>
       <use x="882.064453" xlink:href="#DejaVuSans-105"/>
       <use x="909.847656" xlink:href="#DejaVuSans-110"/>
       <use x="973.226562" xlink:href="#DejaVuSans-103"/>
       <use x="1036.703125" xlink:href="#DejaVuSans-95"/>
       <use x="1086.703125" xlink:href="#DejaVuSans-67"/>
       <use x="1156.527344" xlink:href="#DejaVuSans-108"/>
       <use x="1184.310547" xlink:href="#DejaVuSans-105"/>
       <use x="1212.09375" xlink:href="#DejaVuSans-99"/>
       <use x="1267.074219" xlink:href="#DejaVuSans-104"/>
       <use x="1330.453125" xlink:href="#DejaVuSans-101"/>
       <use x="1391.976562" xlink:href="#DejaVuSans-115"/>
      </g>
     </g>
    </g>
    <g id="ytick_14">
     <g id="text_23">
      <!-- Bandwagon,Reductio_ad_hitlerum -->
      <g style="fill:#262626;" transform="translate(97.236094 808.976618)scale(0.25 -0.25)">
       <use xlink:href="#DejaVuSans-66"/>
       <use x="68.603516" xlink:href="#DejaVuSans-97"/>
       <use x="129.882812" xlink:href="#DejaVuSans-110"/>
       <use x="193.261719" xlink:href="#DejaVuSans-100"/>
       <use x="256.738281" xlink:href="#DejaVuSans-119"/>
       <use x="338.525391" xlink:href="#DejaVuSans-97"/>
       <use x="399.804688" xlink:href="#DejaVuSans-103"/>
       <use x="463.28125" xlink:href="#DejaVuSans-111"/>
       <use x="524.462891" xlink:href="#DejaVuSans-110"/>
       <use x="587.841797" xlink:href="#DejaVuSans-44"/>
       <use x="619.628906" xlink:href="#DejaVuSans-82"/>
       <use x="689.048828" xlink:href="#DejaVuSans-101"/>
       <use x="750.572266" xlink:href="#DejaVuSans-100"/>
       <use x="814.048828" xlink:href="#DejaVuSans-117"/>
       <use x="877.427734" xlink:href="#DejaVuSans-99"/>
       <use x="932.408203" xlink:href="#DejaVuSans-116"/>
       <use x="971.617188" xlink:href="#DejaVuSans-105"/>
       <use x="999.400391" xlink:href="#DejaVuSans-111"/>
       <use x="1060.582031" xlink:href="#DejaVuSans-95"/>
       <use x="1110.582031" xlink:href="#DejaVuSans-97"/>
       <use x="1171.861328" xlink:href="#DejaVuSans-100"/>
       <use x="1235.337891" xlink:href="#DejaVuSans-95"/>
       <use x="1285.337891" xlink:href="#DejaVuSans-104"/>
       <use x="1348.716797" xlink:href="#DejaVuSans-105"/>
       <use x="1376.5" xlink:href="#DejaVuSans-116"/>
       <use x="1415.708984" xlink:href="#DejaVuSans-108"/>
       <use x="1443.492188" xlink:href="#DejaVuSans-101"/>
       <use x="1505.015625" xlink:href="#DejaVuSans-114"/>
       <use x="1546.128906" xlink:href="#DejaVuSans-117"/>
       <use x="1609.507812" xlink:href="#DejaVuSans-109"/>
      </g>
     </g>
    </g>
    <g id="text_24">
     <!-- label -->
     <g style="fill:#262626;" transform="translate(25.43625 449.923125)rotate(-90)scale(0.24 -0.24)">
      <use xlink:href="#DejaVuSans-108"/>
      <use x="27.783203" xlink:href="#DejaVuSans-97"/>
      <use x="89.0625" xlink:href="#DejaVuSans-98"/>
      <use x="152.539062" xlink:href="#DejaVuSans-101"/>
      <use x="214.0625" xlink:href="#DejaVuSans-108"/>
     </g>
    </g>
   </g>
   <g id="patch_3">
    <path clip-path="url(#p53cf9601a3)" d="M 533.470469 19.024286 
L 1596.327612 19.024286 
L 1596.327612 42.321429 
L 533.470469 42.321429 
z
" style="fill:#5875a4;stroke:#ffffff;stroke-linejoin:miter;"/>
   </g>
   <g id="patch_4">
    <path clip-path="url(#p53cf9601a3)" d="M 533.470469 77.267143 
L 1063.367546 77.267143 
L 1063.367546 100.564286 
L 533.470469 100.564286 
z
" style="fill:#5875a4;stroke:#ffffff;stroke-linejoin:miter;"/>
   </g>
   <g id="patch_5">
    <path clip-path="url(#p53cf9601a3)" d="M 533.470469 135.51 
L 842.832346 135.51 
L 842.832346 158.807143 
L 533.470469 158.807143 
z
" style="fill:#5875a4;stroke:#ffffff;stroke-linejoin:miter;"/>
   </g>
   <g id="patch_6">
    <path clip-path="url(#p53cf9601a3)" d="M 533.470469 193.752857 
L 646.801057 193.752857 
L 646.801057 217.05 
L 533.470469 217.05 
z
" style="fill:#5875a4;stroke:#ffffff;stroke-linejoin:miter;"/>
   </g>
   <g id="patch_7">
    <path clip-path="url(#p53cf9601a3)" d="M 533.470469 251.995714 
L 781.572568 251.995714 
L 781.572568 275.292857 
L 533.470469 275.292857 
z
" style="fill:#5875a4;stroke:#ffffff;stroke-linejoin:miter;"/>
   </g>
   <g id="patch_8">
    <path clip-path="url(#p53cf9601a3)" d="M 533.470469 310.238571 
L 766.257624 310.238571 
L 766.257624 333.535714 
L 533.470469 333.535714 
z
" style="fill:#5875a4;stroke:#ffffff;stroke-linejoin:miter;"/>
   </g>
   <g id="patch_9">
    <path clip-path="url(#p53cf9601a3)" d="M 533.470469 368.481429 
L 680.493935 368.481429 
L 680.493935 391.778571 
L 533.470469 391.778571 
z
" style="fill:#5875a4;stroke:#ffffff;stroke-linejoin:miter;"/>
   </g>
   <g id="patch_10">
    <path clip-path="url(#p53cf9601a3)" d="M 533.470469 426.724286 
L 597.793235 426.724286 
L 597.793235 450.021429 
L 533.470469 450.021429 
z
" style="fill:#5875a4;stroke:#ffffff;stroke-linejoin:miter;"/>
   </g>
   <g id="patch_11">
    <path clip-path="url(#p53cf9601a3)" d="M 533.470469 484.967143 
L 637.612091 484.967143 
L 637.612091 508.264286 
L 533.470469 508.264286 
z
" style="fill:#5875a4;stroke:#ffffff;stroke-linejoin:miter;"/>
   </g>
   <g id="patch_12">
    <path clip-path="url(#p53cf9601a3)" d="M 533.470469 543.21 
L 585.54128 543.21 
L 585.54128 566.507143 
L 533.470469 566.507143 
z
" style="fill:#5875a4;stroke:#ffffff;stroke-linejoin:miter;"/>
   </g>
   <g id="patch_13">
    <path clip-path="url(#p53cf9601a3)" d="M 533.470469 601.452857 
L 600.856224 601.452857 
L 600.856224 624.75 
L 533.470469 624.75 
z
" style="fill:#5875a4;stroke:#ffffff;stroke-linejoin:miter;"/>
   </g>
   <g id="patch_14">
    <path clip-path="url(#p53cf9601a3)" d="M 533.470469 659.695714 
L 585.54128 659.695714 
L 585.54128 682.992857 
L 533.470469 682.992857 
z
" style="fill:#5875a4;stroke:#ffffff;stroke-linejoin:miter;"/>
   </g>
   <g id="patch_15">
    <path clip-path="url(#p53cf9601a3)" d="M 533.470469 717.938571 
L 570.226335 717.938571 
L 570.226335 741.235714 
L 533.470469 741.235714 
z
" style="fill:#5875a4;stroke:#ffffff;stroke-linejoin:miter;"/>
   </g>
   <g id="patch_16">
    <path clip-path="url(#p53cf9601a3)" d="M 533.470469 776.181429 
L 570.226335 776.181429 
L 570.226335 799.478571 
L 533.470469 799.478571 
z
" style="fill:#5875a4;stroke:#ffffff;stroke-linejoin:miter;"/>
   </g>
   <g id="patch_17">
    <path clip-path="url(#p53cf9601a3)" d="M 533.470469 42.321429 
L 1470.745067 42.321429 
L 1470.745067 65.618571 
L 533.470469 65.618571 
z
" style="fill:#cc8963;stroke:#ffffff;stroke-linejoin:miter;"/>
   </g>
   <g id="patch_18">
    <path clip-path="url(#p53cf9601a3)" d="M 533.470469 100.564286 
L 1060.304557 100.564286 
L 1060.304557 123.861429 
L 533.470469 123.861429 
z
" style="fill:#cc8963;stroke:#ffffff;stroke-linejoin:miter;"/>
   </g>
   <g id="patch_19">
    <path clip-path="url(#p53cf9601a3)" d="M 533.470469 158.807143 
L 950.036957 158.807143 
L 950.036957 182.104286 
L 533.470469 182.104286 
z
" style="fill:#cc8963;stroke:#ffffff;stroke-linejoin:miter;"/>
   </g>
   <g id="patch_20">
    <path clip-path="url(#p53cf9601a3)" d="M 533.470469 217.05 
L 784.635557 217.05 
L 784.635557 240.347143 
L 533.470469 240.347143 
z
" style="fill:#cc8963;stroke:#ffffff;stroke-linejoin:miter;"/>
   </g>
   <g id="patch_21">
    <path clip-path="url(#p53cf9601a3)" d="M 533.470469 275.292857 
L 723.37578 275.292857 
L 723.37578 298.59 
L 533.470469 298.59 
z
" style="fill:#cc8963;stroke:#ffffff;stroke-linejoin:miter;"/>
   </g>
   <g id="patch_22">
    <path clip-path="url(#p53cf9601a3)" d="M 533.470469 333.535714 
L 729.501757 333.535714 
L 729.501757 356.832857 
L 533.470469 356.832857 
z
" style="fill:#cc8963;stroke:#ffffff;stroke-linejoin:miter;"/>
   </g>
   <g id="patch_23">
    <path clip-path="url(#p53cf9601a3)" d="M 533.470469 391.778571 
L 659.053013 391.778571 
L 659.053013 415.075714 
L 533.470469 415.075714 
z
" style="fill:#cc8963;stroke:#ffffff;stroke-linejoin:miter;"/>
   </g>
   <g id="patch_24">
    <path clip-path="url(#p53cf9601a3)" d="M 533.470469 450.021429 
L 649.864046 450.021429 
L 649.864046 473.318571 
L 533.470469 473.318571 
z
" style="fill:#cc8963;stroke:#ffffff;stroke-linejoin:miter;"/>
   </g>
   <g id="patch_25">
    <path clip-path="url(#p53cf9601a3)" d="M 533.470469 508.264286 
L 585.54128 508.264286 
L 585.54128 531.561429 
L 533.470469 531.561429 
z
" style="fill:#cc8963;stroke:#ffffff;stroke-linejoin:miter;"/>
   </g>
   <g id="patch_26">
    <path clip-path="url(#p53cf9601a3)" d="M 533.470469 566.507143 
L 616.171169 566.507143 
L 616.171169 589.804286 
L 533.470469 589.804286 
z
" style="fill:#cc8963;stroke:#ffffff;stroke-linejoin:miter;"/>
   </g>
   <g id="patch_27">
    <path clip-path="url(#p53cf9601a3)" d="M 533.470469 624.75 
L 573.289324 624.75 
L 573.289324 648.047143 
L 533.470469 648.047143 
z
" style="fill:#cc8963;stroke:#ffffff;stroke-linejoin:miter;"/>
   </g>
   <g id="patch_28">
    <path clip-path="url(#p53cf9601a3)" d="M 533.470469 682.992857 
L 597.793235 682.992857 
L 597.793235 706.29 
L 533.470469 706.29 
z
" style="fill:#cc8963;stroke:#ffffff;stroke-linejoin:miter;"/>
   </g>
   <g id="patch_29">
    <path clip-path="url(#p53cf9601a3)" d="M 533.470469 741.235714 
L 582.478291 741.235714 
L 582.478291 764.532857 
L 533.470469 764.532857 
z
" style="fill:#cc8963;stroke:#ffffff;stroke-linejoin:miter;"/>
   </g>
   <g id="patch_30">
    <path clip-path="url(#p53cf9601a3)" d="M 533.470469 799.478571 
L 548.785413 799.478571 
L 548.785413 822.775714 
L 533.470469 822.775714 
z
" style="fill:#cc8963;stroke:#ffffff;stroke-linejoin:miter;"/>
   </g>
   <g id="line2d_9">
    <path clip-path="url(#p53cf9601a3)" d="M 0 0 
" style="fill:none;stroke:#424242;stroke-linecap:round;stroke-width:2.7;"/>
   </g>
   <g id="line2d_10">
    <path clip-path="url(#p53cf9601a3)" d="M 0 0 
" style="fill:none;stroke:#424242;stroke-linecap:round;stroke-width:2.7;"/>
   </g>
   <g id="line2d_11">
    <path clip-path="url(#p53cf9601a3)" d="M 0 0 
" style="fill:none;stroke:#424242;stroke-linecap:round;stroke-width:2.7;"/>
   </g>
   <g id="line2d_12">
    <path clip-path="url(#p53cf9601a3)" d="M 0 0 
" style="fill:none;stroke:#424242;stroke-linecap:round;stroke-width:2.7;"/>
   </g>
   <g id="line2d_13">
    <path clip-path="url(#p53cf9601a3)" d="M 0 0 
" style="fill:none;stroke:#424242;stroke-linecap:round;stroke-width:2.7;"/>
   </g>
   <g id="line2d_14">
    <path clip-path="url(#p53cf9601a3)" d="M 0 0 
" style="fill:none;stroke:#424242;stroke-linecap:round;stroke-width:2.7;"/>
   </g>
   <g id="line2d_15">
    <path clip-path="url(#p53cf9601a3)" d="M 0 0 
" style="fill:none;stroke:#424242;stroke-linecap:round;stroke-width:2.7;"/>
   </g>
   <g id="line2d_16">
    <path clip-path="url(#p53cf9601a3)" d="M 0 0 
" style="fill:none;stroke:#424242;stroke-linecap:round;stroke-width:2.7;"/>
   </g>
   <g id="line2d_17">
    <path clip-path="url(#p53cf9601a3)" d="M 0 0 
" style="fill:none;stroke:#424242;stroke-linecap:round;stroke-width:2.7;"/>
   </g>
   <g id="line2d_18">
    <path clip-path="url(#p53cf9601a3)" d="M 0 0 
" style="fill:none;stroke:#424242;stroke-linecap:round;stroke-width:2.7;"/>
   </g>
   <g id="line2d_19">
    <path clip-path="url(#p53cf9601a3)" d="M 0 0 
" style="fill:none;stroke:#424242;stroke-linecap:round;stroke-width:2.7;"/>
   </g>
   <g id="line2d_20">
    <path clip-path="url(#p53cf9601a3)" d="M 0 0 
" style="fill:none;stroke:#424242;stroke-linecap:round;stroke-width:2.7;"/>
   </g>
   <g id="line2d_21">
    <path clip-path="url(#p53cf9601a3)" d="M 0 0 
" style="fill:none;stroke:#424242;stroke-linecap:round;stroke-width:2.7;"/>
   </g>
   <g id="line2d_22">
    <path clip-path="url(#p53cf9601a3)" d="M 0 0 
" style="fill:none;stroke:#424242;stroke-linecap:round;stroke-width:2.7;"/>
   </g>
   <g id="line2d_23">
    <path clip-path="url(#p53cf9601a3)" d="M 0 0 
" style="fill:none;stroke:#424242;stroke-linecap:round;stroke-width:2.7;"/>
   </g>
   <g id="line2d_24">
    <path clip-path="url(#p53cf9601a3)" d="M 0 0 
" style="fill:none;stroke:#424242;stroke-linecap:round;stroke-width:2.7;"/>
   </g>
   <g id="line2d_25">
    <path clip-path="url(#p53cf9601a3)" d="M 0 0 
" style="fill:none;stroke:#424242;stroke-linecap:round;stroke-width:2.7;"/>
   </g>
   <g id="line2d_26">
    <path clip-path="url(#p53cf9601a3)" d="M 0 0 
" style="fill:none;stroke:#424242;stroke-linecap:round;stroke-width:2.7;"/>
   </g>
   <g id="line2d_27">
    <path clip-path="url(#p53cf9601a3)" d="M 0 0 
" style="fill:none;stroke:#424242;stroke-linecap:round;stroke-width:2.7;"/>
   </g>
   <g id="line2d_28">
    <path clip-path="url(#p53cf9601a3)" d="M 0 0 
" style="fill:none;stroke:#424242;stroke-linecap:round;stroke-width:2.7;"/>
   </g>
   <g id="line2d_29">
    <path clip-path="url(#p53cf9601a3)" d="M 0 0 
" style="fill:none;stroke:#424242;stroke-linecap:round;stroke-width:2.7;"/>
   </g>
   <g id="line2d_30">
    <path clip-path="url(#p53cf9601a3)" d="M 0 0 
" style="fill:none;stroke:#424242;stroke-linecap:round;stroke-width:2.7;"/>
   </g>
   <g id="line2d_31">
    <path clip-path="url(#p53cf9601a3)" d="M 0 0 
" style="fill:none;stroke:#424242;stroke-linecap:round;stroke-width:2.7;"/>
   </g>
   <g id="line2d_32">
    <path clip-path="url(#p53cf9601a3)" d="M 0 0 
" style="fill:none;stroke:#424242;stroke-linecap:round;stroke-width:2.7;"/>
   </g>
   <g id="line2d_33">
    <path clip-path="url(#p53cf9601a3)" d="M 0 0 
" style="fill:none;stroke:#424242;stroke-linecap:round;stroke-width:2.7;"/>
   </g>
   <g id="line2d_34">
    <path clip-path="url(#p53cf9601a3)" d="M 0 0 
" style="fill:none;stroke:#424242;stroke-linecap:round;stroke-width:2.7;"/>
   </g>
   <g id="line2d_35">
    <path clip-path="url(#p53cf9601a3)" d="M 0 0 
" style="fill:none;stroke:#424242;stroke-linecap:round;stroke-width:2.7;"/>
   </g>
   <g id="line2d_36">
    <path clip-path="url(#p53cf9601a3)" d="M 0 0 
" style="fill:none;stroke:#424242;stroke-linecap:round;stroke-width:2.7;"/>
   </g>
   <g id="patch_31">
    <path d="M 533.470469 828.6 
L 533.470469 13.2 
" style="fill:none;stroke:#cccccc;stroke-linecap:square;stroke-linejoin:miter;stroke-width:1.25;"/>
   </g>
   <g id="patch_32">
    <path d="M 1649.470469 828.6 
L 1649.470469 13.2 
" style="fill:none;stroke:#cccccc;stroke-linecap:square;stroke-linejoin:miter;stroke-width:1.25;"/>
   </g>
   <g id="patch_33">
    <path d="M 533.470469 828.6 
L 1649.470469 828.6 
" style="fill:none;stroke:#cccccc;stroke-linecap:square;stroke-linejoin:miter;stroke-width:1.25;"/>
   </g>
   <g id="patch_34">
    <path d="M 533.470469 13.2 
L 1649.470469 13.2 
" style="fill:none;stroke:#cccccc;stroke-linecap:square;stroke-linejoin:miter;stroke-width:1.25;"/>
   </g>
   <g id="legend_1">
    <g id="patch_35">
     <path d="M 1512.465469 817.6 
L 1634.070469 817.6 
Q 1638.470469 817.6 1638.470469 813.2 
L 1638.470469 720.072875 
Q 1638.470469 715.672875 1634.070469 715.672875 
L 1512.465469 715.672875 
Q 1508.065469 715.672875 1508.065469 720.072875 
L 1508.065469 813.2 
Q 1508.065469 817.6 1512.465469 817.6 
z
" style="fill:#ffffff;opacity:0.8;stroke:#cccccc;stroke-linejoin:miter;"/>
    </g>
    <g id="text_25">
     <!-- dataset -->
     <g style="fill:#262626;" transform="translate(1534.704 739.973687)scale(0.204 -0.204)">
      <use xlink:href="#DejaVuSans-100"/>
      <use x="63.476562" xlink:href="#DejaVuSans-97"/>
      <use x="124.755859" xlink:href="#DejaVuSans-116"/>
      <use x="163.964844" xlink:href="#DejaVuSans-97"/>
      <use x="225.244141" xlink:href="#DejaVuSans-115"/>
      <use x="277.34375" xlink:href="#DejaVuSans-101"/>
      <use x="338.867188" xlink:href="#DejaVuSans-116"/>
     </g>
    </g>
    <g id="patch_36">
     <path d="M 1516.865469 771.932812 
L 1560.865469 771.932812 
L 1560.865469 756.532812 
L 1516.865469 756.532812 
z
" style="fill:#5875a4;stroke:#ffffff;stroke-linejoin:miter;"/>
    </g>
    <g id="text_26">
     <!-- train -->
     <g style="fill:#262626;" transform="translate(1578.465469 771.932812)scale(0.22 -0.22)">
      <use xlink:href="#DejaVuSans-116"/>
      <use x="39.208984" xlink:href="#DejaVuSans-114"/>
      <use x="80.322266" xlink:href="#DejaVuSans-97"/>
      <use x="141.601562" xlink:href="#DejaVuSans-105"/>
      <use x="169.384766" xlink:href="#DejaVuSans-110"/>
     </g>
    </g>
    <g id="patch_37">
     <path d="M 1516.865469 804.224687 
L 1560.865469 804.224687 
L 1560.865469 788.824687 
L 1516.865469 788.824687 
z
" style="fill:#cc8963;stroke:#ffffff;stroke-linejoin:miter;"/>
    </g>
    <g id="text_27">
     <!-- dev -->
     <g style="fill:#262626;" transform="translate(1578.465469 804.224687)scale(0.22 -0.22)">
      <use xlink:href="#DejaVuSans-100"/>
      <use x="63.476562" xlink:href="#DejaVuSans-101"/>
      <use x="125" xlink:href="#DejaVuSans-118"/>
     </g>
    </g>
   </g>
  </g>
 </g>
 <defs>
  <clipPath id="p53cf9601a3">
   <rect height="815.4" width="1116" x="533.470469" y="13.2"/>
  </clipPath>
 </defs>
</svg>
